<svg xmlns="http://www.w3.org/2000/svg" width="24" height="24" viewBox="0 0 24 24"><defs><clipPath id="su9fa"><path fill="#fff" d="M12 0c6.627 0 12 5.372 12 12 0 6.627-5.373 12-12 12S0 18.627 0 12C0 5.372 5.373 0 12 0z"/></clipPath><clipPath id="su9fb"><path fill="#fff" d="M12 0c6.627 0 12 5.372 12 12 0 6.627-5.373 12-12 12S0 18.627 0 12C0 5.372 5.373 0 12 0z"/></clipPath></defs><g><g><path fill="#fff" d="M12 0c6.627 0 12 5.372 12 12 0 6.627-5.373 12-12 12S0 18.627 0 12C0 5.372 5.373 0 12 0z"/><path fill="none" stroke="#4caf50" stroke-linecap="round" stroke-linejoin="round" stroke-miterlimit="50" stroke-width="18" d="M12 0v0c6.627 0 12 5.372 12 12v0c0 6.627-5.373 12-12 12v0C5.373 24 0 18.627 0 12v0C0 5.372 5.373 0 12 0z" clip-path="url(&quot;#su9fa&quot;)"/><path fill="none" stroke="#34a963" stroke-linecap="round" stroke-linejoin="round" stroke-miterlimit="50" stroke-width="18" d="M12 0v0c6.627 0 12 5.372 12 12v0c0 6.627-5.373 12-12 12v0C5.373 24 0 18.627 0 12v0C0 5.372 5.373 0 12 0z" clip-path="url(&quot;#su9fb&quot;)"/></g></g></svg>